<mxfile host="app.diagrams.net" modified="2023-08-28T06:40:32.704Z" agent="Mozilla/5.0 (Windows NT 10.0; Win64; x64) AppleWebKit/537.36 (KHTML, like Gecko) Chrome/116.0.0.0 Safari/537.36" etag="Tw5bDSyF-H9Y8cwCU75U" version="21.6.8" type="device">
  <diagram name="Page-1" id="CyPVnvPRY1ce255v69Bb">
    <mxGraphModel dx="1024" dy="650" grid="1" gridSize="10" guides="1" tooltips="1" connect="1" arrows="1" fold="1" page="1" pageScale="1" pageWidth="850" pageHeight="1100" math="0" shadow="0">
      <root>
        <mxCell id="0" />
        <mxCell id="1" parent="0" />
        <mxCell id="0trJhuwfx5v3oOROFD5g-60" value="" style="group" vertex="1" connectable="0" parent="1">
          <mxGeometry x="520" y="40" width="240" height="400" as="geometry" />
        </mxCell>
        <mxCell id="0trJhuwfx5v3oOROFD5g-4" value="" style="rounded=0;whiteSpace=wrap;html=1;" vertex="1" parent="0trJhuwfx5v3oOROFD5g-60">
          <mxGeometry width="240" height="400" as="geometry" />
        </mxCell>
        <mxCell id="0trJhuwfx5v3oOROFD5g-9" value="" style="rounded=0;whiteSpace=wrap;html=1;" vertex="1" parent="0trJhuwfx5v3oOROFD5g-60">
          <mxGeometry width="240" height="30" as="geometry" />
        </mxCell>
        <mxCell id="0trJhuwfx5v3oOROFD5g-56" value="logo" style="rounded=1;whiteSpace=wrap;html=1;" vertex="1" parent="0trJhuwfx5v3oOROFD5g-60">
          <mxGeometry x="20" width="50" height="30" as="geometry" />
        </mxCell>
        <mxCell id="0trJhuwfx5v3oOROFD5g-57" value="nav bar" style="rounded=1;whiteSpace=wrap;html=1;" vertex="1" parent="0trJhuwfx5v3oOROFD5g-60">
          <mxGeometry x="120" width="100" height="30" as="geometry" />
        </mxCell>
        <mxCell id="0trJhuwfx5v3oOROFD5g-59" value="" style="group" vertex="1" connectable="0" parent="1">
          <mxGeometry x="40" y="40" width="400" height="400" as="geometry" />
        </mxCell>
        <mxCell id="0trJhuwfx5v3oOROFD5g-2" value="" style="whiteSpace=wrap;html=1;aspect=fixed;" vertex="1" parent="0trJhuwfx5v3oOROFD5g-59">
          <mxGeometry width="400" height="400" as="geometry" />
        </mxCell>
        <mxCell id="0trJhuwfx5v3oOROFD5g-6" value="" style="rounded=0;whiteSpace=wrap;html=1;" vertex="1" parent="0trJhuwfx5v3oOROFD5g-59">
          <mxGeometry width="400" height="30" as="geometry" />
        </mxCell>
        <mxCell id="0trJhuwfx5v3oOROFD5g-54" value="logo" style="rounded=1;whiteSpace=wrap;html=1;" vertex="1" parent="0trJhuwfx5v3oOROFD5g-59">
          <mxGeometry x="30" width="50" height="30" as="geometry" />
        </mxCell>
        <mxCell id="0trJhuwfx5v3oOROFD5g-55" value="nav bar" style="rounded=1;whiteSpace=wrap;html=1;" vertex="1" parent="0trJhuwfx5v3oOROFD5g-59">
          <mxGeometry x="230" width="140" height="30" as="geometry" />
        </mxCell>
        <mxCell id="0trJhuwfx5v3oOROFD5g-21" value="" style="group" vertex="1" connectable="0" parent="1">
          <mxGeometry x="70" y="110" width="90" height="90" as="geometry" />
        </mxCell>
        <mxCell id="0trJhuwfx5v3oOROFD5g-10" value="&lt;br&gt;&lt;br&gt;&lt;br&gt;&lt;br&gt;&lt;br&gt;name&amp;nbsp; &amp;nbsp; &amp;nbsp; price" style="rounded=1;whiteSpace=wrap;html=1;" vertex="1" parent="0trJhuwfx5v3oOROFD5g-21">
          <mxGeometry width="90" height="90" as="geometry" />
        </mxCell>
        <mxCell id="0trJhuwfx5v3oOROFD5g-20" value="IMG" style="rounded=1;whiteSpace=wrap;html=1;" vertex="1" parent="0trJhuwfx5v3oOROFD5g-21">
          <mxGeometry width="90" height="70" as="geometry" />
        </mxCell>
        <mxCell id="0trJhuwfx5v3oOROFD5g-22" value="" style="group" vertex="1" connectable="0" parent="1">
          <mxGeometry x="195" y="110" width="90" height="90" as="geometry" />
        </mxCell>
        <mxCell id="0trJhuwfx5v3oOROFD5g-23" value="&lt;br&gt;&lt;br&gt;&lt;br&gt;&lt;br&gt;&lt;br&gt;name&amp;nbsp; &amp;nbsp; &amp;nbsp; price" style="rounded=1;whiteSpace=wrap;html=1;" vertex="1" parent="0trJhuwfx5v3oOROFD5g-22">
          <mxGeometry width="90" height="90" as="geometry" />
        </mxCell>
        <mxCell id="0trJhuwfx5v3oOROFD5g-24" value="IMG" style="rounded=1;whiteSpace=wrap;html=1;" vertex="1" parent="0trJhuwfx5v3oOROFD5g-22">
          <mxGeometry width="90" height="70" as="geometry" />
        </mxCell>
        <mxCell id="0trJhuwfx5v3oOROFD5g-25" value="" style="group" vertex="1" connectable="0" parent="1">
          <mxGeometry x="320" y="110" width="90" height="90" as="geometry" />
        </mxCell>
        <mxCell id="0trJhuwfx5v3oOROFD5g-26" value="&lt;br&gt;&lt;br&gt;&lt;br&gt;&lt;br&gt;&lt;br&gt;name&amp;nbsp; &amp;nbsp; &amp;nbsp; price" style="rounded=1;whiteSpace=wrap;html=1;" vertex="1" parent="0trJhuwfx5v3oOROFD5g-25">
          <mxGeometry width="90" height="90" as="geometry" />
        </mxCell>
        <mxCell id="0trJhuwfx5v3oOROFD5g-27" value="IMG" style="rounded=1;whiteSpace=wrap;html=1;" vertex="1" parent="0trJhuwfx5v3oOROFD5g-25">
          <mxGeometry width="90" height="70" as="geometry" />
        </mxCell>
        <mxCell id="0trJhuwfx5v3oOROFD5g-28" value="" style="group" vertex="1" connectable="0" parent="1">
          <mxGeometry x="70" y="240" width="90" height="90" as="geometry" />
        </mxCell>
        <mxCell id="0trJhuwfx5v3oOROFD5g-29" value="&lt;br&gt;&lt;br&gt;&lt;br&gt;&lt;br&gt;&lt;br&gt;name&amp;nbsp; &amp;nbsp; &amp;nbsp; price" style="rounded=1;whiteSpace=wrap;html=1;" vertex="1" parent="0trJhuwfx5v3oOROFD5g-28">
          <mxGeometry width="90" height="90" as="geometry" />
        </mxCell>
        <mxCell id="0trJhuwfx5v3oOROFD5g-30" value="IMG" style="rounded=1;whiteSpace=wrap;html=1;" vertex="1" parent="0trJhuwfx5v3oOROFD5g-28">
          <mxGeometry width="90" height="70" as="geometry" />
        </mxCell>
        <mxCell id="0trJhuwfx5v3oOROFD5g-31" value="" style="group" vertex="1" connectable="0" parent="1">
          <mxGeometry x="195" y="240" width="90" height="90" as="geometry" />
        </mxCell>
        <mxCell id="0trJhuwfx5v3oOROFD5g-32" value="&lt;br&gt;&lt;br&gt;&lt;br&gt;&lt;br&gt;&lt;br&gt;name&amp;nbsp; &amp;nbsp; &amp;nbsp; price" style="rounded=1;whiteSpace=wrap;html=1;" vertex="1" parent="0trJhuwfx5v3oOROFD5g-31">
          <mxGeometry width="90" height="90" as="geometry" />
        </mxCell>
        <mxCell id="0trJhuwfx5v3oOROFD5g-33" value="IMG" style="rounded=1;whiteSpace=wrap;html=1;" vertex="1" parent="0trJhuwfx5v3oOROFD5g-31">
          <mxGeometry width="90" height="70" as="geometry" />
        </mxCell>
        <mxCell id="0trJhuwfx5v3oOROFD5g-34" value="" style="group" vertex="1" connectable="0" parent="1">
          <mxGeometry x="320" y="240" width="90" height="90" as="geometry" />
        </mxCell>
        <mxCell id="0trJhuwfx5v3oOROFD5g-35" value="&lt;br&gt;&lt;br&gt;&lt;br&gt;&lt;br&gt;&lt;br&gt;name&amp;nbsp; &amp;nbsp; &amp;nbsp; price" style="rounded=1;whiteSpace=wrap;html=1;" vertex="1" parent="0trJhuwfx5v3oOROFD5g-34">
          <mxGeometry width="90" height="90" as="geometry" />
        </mxCell>
        <mxCell id="0trJhuwfx5v3oOROFD5g-36" value="IMG" style="rounded=1;whiteSpace=wrap;html=1;" vertex="1" parent="0trJhuwfx5v3oOROFD5g-34">
          <mxGeometry width="90" height="70" as="geometry" />
        </mxCell>
        <mxCell id="0trJhuwfx5v3oOROFD5g-40" value="" style="group" vertex="1" connectable="0" parent="1">
          <mxGeometry x="195" y="360" width="90" height="90" as="geometry" />
        </mxCell>
        <mxCell id="0trJhuwfx5v3oOROFD5g-41" value="&lt;br&gt;&lt;br&gt;&lt;br&gt;&lt;br&gt;&lt;br&gt;name&amp;nbsp; &amp;nbsp; &amp;nbsp; price" style="rounded=1;whiteSpace=wrap;html=1;" vertex="1" parent="0trJhuwfx5v3oOROFD5g-40">
          <mxGeometry width="90" height="90" as="geometry" />
        </mxCell>
        <mxCell id="0trJhuwfx5v3oOROFD5g-42" value="IMG" style="rounded=1;whiteSpace=wrap;html=1;" vertex="1" parent="0trJhuwfx5v3oOROFD5g-40">
          <mxGeometry width="90" height="70" as="geometry" />
        </mxCell>
        <mxCell id="0trJhuwfx5v3oOROFD5g-43" value="" style="group" vertex="1" connectable="0" parent="1">
          <mxGeometry x="320" y="360" width="90" height="90" as="geometry" />
        </mxCell>
        <mxCell id="0trJhuwfx5v3oOROFD5g-44" value="&lt;br&gt;&lt;br&gt;&lt;br&gt;&lt;br&gt;&lt;br&gt;name&amp;nbsp; &amp;nbsp; &amp;nbsp; price" style="rounded=1;whiteSpace=wrap;html=1;" vertex="1" parent="0trJhuwfx5v3oOROFD5g-43">
          <mxGeometry width="90" height="90" as="geometry" />
        </mxCell>
        <mxCell id="0trJhuwfx5v3oOROFD5g-45" value="IMG" style="rounded=1;whiteSpace=wrap;html=1;" vertex="1" parent="0trJhuwfx5v3oOROFD5g-43">
          <mxGeometry width="90" height="70" as="geometry" />
        </mxCell>
        <mxCell id="0trJhuwfx5v3oOROFD5g-37" value="" style="group" vertex="1" connectable="0" parent="1">
          <mxGeometry x="70" y="360" width="90" height="90" as="geometry" />
        </mxCell>
        <mxCell id="0trJhuwfx5v3oOROFD5g-38" value="&lt;br&gt;&lt;br&gt;&lt;br&gt;&lt;br&gt;&lt;br&gt;name&amp;nbsp; &amp;nbsp; &amp;nbsp; price" style="rounded=1;whiteSpace=wrap;html=1;" vertex="1" parent="0trJhuwfx5v3oOROFD5g-37">
          <mxGeometry width="90" height="90" as="geometry" />
        </mxCell>
        <mxCell id="0trJhuwfx5v3oOROFD5g-39" value="IMG" style="rounded=1;whiteSpace=wrap;html=1;" vertex="1" parent="0trJhuwfx5v3oOROFD5g-37">
          <mxGeometry width="90" height="70" as="geometry" />
        </mxCell>
        <mxCell id="0trJhuwfx5v3oOROFD5g-47" value="" style="group" vertex="1" connectable="0" parent="1">
          <mxGeometry x="540" y="110" width="200" height="90" as="geometry" />
        </mxCell>
        <mxCell id="0trJhuwfx5v3oOROFD5g-19" value="name&lt;span style=&quot;white-space: pre;&quot;&gt;&#x9;&lt;/span&gt;&lt;br&gt;&lt;br&gt;&lt;br&gt;&lt;br&gt;Price&lt;span style=&quot;white-space: pre;&quot;&gt;&#x9;&lt;/span&gt;" style="rounded=1;whiteSpace=wrap;html=1;align=right;" vertex="1" parent="0trJhuwfx5v3oOROFD5g-47">
          <mxGeometry width="200" height="90" as="geometry" />
        </mxCell>
        <mxCell id="0trJhuwfx5v3oOROFD5g-46" value="IMG" style="rounded=1;whiteSpace=wrap;html=1;" vertex="1" parent="0trJhuwfx5v3oOROFD5g-47">
          <mxGeometry width="110" height="90" as="geometry" />
        </mxCell>
        <mxCell id="0trJhuwfx5v3oOROFD5g-48" value="" style="group" vertex="1" connectable="0" parent="1">
          <mxGeometry x="540" y="220" width="200" height="90" as="geometry" />
        </mxCell>
        <mxCell id="0trJhuwfx5v3oOROFD5g-49" value="name&lt;span style=&quot;white-space: pre;&quot;&gt;&#x9;&lt;/span&gt;&lt;br&gt;&lt;br&gt;&lt;br&gt;&lt;br&gt;Price&lt;span style=&quot;white-space: pre;&quot;&gt;&#x9;&lt;/span&gt;" style="rounded=1;whiteSpace=wrap;html=1;align=right;" vertex="1" parent="0trJhuwfx5v3oOROFD5g-48">
          <mxGeometry width="200" height="90" as="geometry" />
        </mxCell>
        <mxCell id="0trJhuwfx5v3oOROFD5g-50" value="IMG" style="rounded=1;whiteSpace=wrap;html=1;" vertex="1" parent="0trJhuwfx5v3oOROFD5g-48">
          <mxGeometry width="110" height="90" as="geometry" />
        </mxCell>
        <mxCell id="0trJhuwfx5v3oOROFD5g-51" value="" style="group" vertex="1" connectable="0" parent="1">
          <mxGeometry x="540" y="340" width="200" height="90" as="geometry" />
        </mxCell>
        <mxCell id="0trJhuwfx5v3oOROFD5g-52" value="name&lt;span style=&quot;white-space: pre;&quot;&gt;&#x9;&lt;/span&gt;&lt;br&gt;&lt;br&gt;&lt;br&gt;&lt;br&gt;Price&lt;span style=&quot;white-space: pre;&quot;&gt;&#x9;&lt;/span&gt;" style="rounded=1;whiteSpace=wrap;html=1;align=right;" vertex="1" parent="0trJhuwfx5v3oOROFD5g-51">
          <mxGeometry width="200" height="90" as="geometry" />
        </mxCell>
        <mxCell id="0trJhuwfx5v3oOROFD5g-53" value="IMG" style="rounded=1;whiteSpace=wrap;html=1;" vertex="1" parent="0trJhuwfx5v3oOROFD5g-51">
          <mxGeometry width="110" height="90" as="geometry" />
        </mxCell>
        <mxCell id="0trJhuwfx5v3oOROFD5g-61" value="" style="group" vertex="1" connectable="0" parent="1">
          <mxGeometry x="40" y="480" width="400" height="400" as="geometry" />
        </mxCell>
        <mxCell id="0trJhuwfx5v3oOROFD5g-62" value="" style="whiteSpace=wrap;html=1;aspect=fixed;" vertex="1" parent="0trJhuwfx5v3oOROFD5g-61">
          <mxGeometry width="400" height="400" as="geometry" />
        </mxCell>
        <mxCell id="0trJhuwfx5v3oOROFD5g-63" value="" style="rounded=0;whiteSpace=wrap;html=1;" vertex="1" parent="0trJhuwfx5v3oOROFD5g-61">
          <mxGeometry width="400" height="30" as="geometry" />
        </mxCell>
        <mxCell id="0trJhuwfx5v3oOROFD5g-64" value="logo" style="rounded=1;whiteSpace=wrap;html=1;" vertex="1" parent="0trJhuwfx5v3oOROFD5g-61">
          <mxGeometry x="30" width="50" height="30" as="geometry" />
        </mxCell>
        <mxCell id="0trJhuwfx5v3oOROFD5g-65" value="nav bar" style="rounded=1;whiteSpace=wrap;html=1;" vertex="1" parent="0trJhuwfx5v3oOROFD5g-61">
          <mxGeometry x="230" width="140" height="30" as="geometry" />
        </mxCell>
        <mxCell id="0trJhuwfx5v3oOROFD5g-86" value="" style="group" vertex="1" connectable="0" parent="0trJhuwfx5v3oOROFD5g-61">
          <mxGeometry x="30" y="40" width="340" height="340" as="geometry" />
        </mxCell>
        <mxCell id="0trJhuwfx5v3oOROFD5g-84" value="&lt;br&gt;&lt;br&gt;&lt;br&gt;&lt;br&gt;&lt;br&gt;price" style="rounded=1;whiteSpace=wrap;html=1;" vertex="1" parent="0trJhuwfx5v3oOROFD5g-86">
          <mxGeometry y="100" width="340" height="90" as="geometry" />
        </mxCell>
        <mxCell id="0trJhuwfx5v3oOROFD5g-73" value="name&lt;br&gt;&lt;br&gt;&lt;br&gt;&lt;br&gt;&lt;br&gt;" style="rounded=1;whiteSpace=wrap;html=1;" vertex="1" parent="0trJhuwfx5v3oOROFD5g-86">
          <mxGeometry width="340" height="80" as="geometry" />
        </mxCell>
        <mxCell id="0trJhuwfx5v3oOROFD5g-71" value="IMG" style="rounded=1;whiteSpace=wrap;html=1;" vertex="1" parent="0trJhuwfx5v3oOROFD5g-86">
          <mxGeometry y="20" width="340" height="150" as="geometry" />
        </mxCell>
        <mxCell id="0trJhuwfx5v3oOROFD5g-85" value="Description" style="rounded=1;whiteSpace=wrap;html=1;" vertex="1" parent="0trJhuwfx5v3oOROFD5g-86">
          <mxGeometry y="210" width="340" height="130" as="geometry" />
        </mxCell>
        <mxCell id="0trJhuwfx5v3oOROFD5g-66" value="" style="group" vertex="1" connectable="0" parent="1">
          <mxGeometry x="520" y="480" width="360" height="400" as="geometry" />
        </mxCell>
        <mxCell id="0trJhuwfx5v3oOROFD5g-67" value="" style="rounded=0;whiteSpace=wrap;html=1;" vertex="1" parent="0trJhuwfx5v3oOROFD5g-66">
          <mxGeometry width="240" height="400" as="geometry" />
        </mxCell>
        <mxCell id="0trJhuwfx5v3oOROFD5g-68" value="" style="rounded=0;whiteSpace=wrap;html=1;" vertex="1" parent="0trJhuwfx5v3oOROFD5g-66">
          <mxGeometry width="240" height="30" as="geometry" />
        </mxCell>
        <mxCell id="0trJhuwfx5v3oOROFD5g-69" value="logo" style="rounded=1;whiteSpace=wrap;html=1;" vertex="1" parent="0trJhuwfx5v3oOROFD5g-66">
          <mxGeometry x="20" width="50" height="30" as="geometry" />
        </mxCell>
        <mxCell id="0trJhuwfx5v3oOROFD5g-70" value="nav bar" style="rounded=1;whiteSpace=wrap;html=1;" vertex="1" parent="0trJhuwfx5v3oOROFD5g-66">
          <mxGeometry x="120" width="100" height="30" as="geometry" />
        </mxCell>
        <mxCell id="0trJhuwfx5v3oOROFD5g-87" value="" style="group" vertex="1" connectable="0" parent="0trJhuwfx5v3oOROFD5g-66">
          <mxGeometry x="20" y="50" width="200" height="320" as="geometry" />
        </mxCell>
        <mxCell id="0trJhuwfx5v3oOROFD5g-88" value="&lt;br&gt;&lt;br&gt;&lt;br&gt;&lt;br&gt;&lt;br&gt;price" style="rounded=1;whiteSpace=wrap;html=1;" vertex="1" parent="0trJhuwfx5v3oOROFD5g-87">
          <mxGeometry y="94.11764705882352" width="200" height="84.70588235294117" as="geometry" />
        </mxCell>
        <mxCell id="0trJhuwfx5v3oOROFD5g-89" value="name&lt;br&gt;&lt;br&gt;&lt;br&gt;&lt;br&gt;&lt;br&gt;" style="rounded=1;whiteSpace=wrap;html=1;" vertex="1" parent="0trJhuwfx5v3oOROFD5g-87">
          <mxGeometry width="200" height="75.29411764705883" as="geometry" />
        </mxCell>
        <mxCell id="0trJhuwfx5v3oOROFD5g-90" value="IMG" style="rounded=1;whiteSpace=wrap;html=1;" vertex="1" parent="0trJhuwfx5v3oOROFD5g-87">
          <mxGeometry y="18.823529411764707" width="200" height="141.1764705882353" as="geometry" />
        </mxCell>
        <mxCell id="0trJhuwfx5v3oOROFD5g-91" value="Description" style="rounded=1;whiteSpace=wrap;html=1;" vertex="1" parent="0trJhuwfx5v3oOROFD5g-87">
          <mxGeometry y="197.64705882352942" width="200" height="122.35294117647058" as="geometry" />
        </mxCell>
        <mxCell id="0trJhuwfx5v3oOROFD5g-102" value="" style="group" vertex="1" connectable="0" parent="1">
          <mxGeometry x="40" y="920" width="400" height="400" as="geometry" />
        </mxCell>
        <mxCell id="0trJhuwfx5v3oOROFD5g-103" value="" style="whiteSpace=wrap;html=1;aspect=fixed;" vertex="1" parent="0trJhuwfx5v3oOROFD5g-102">
          <mxGeometry width="400" height="400" as="geometry" />
        </mxCell>
        <mxCell id="0trJhuwfx5v3oOROFD5g-104" value="" style="rounded=0;whiteSpace=wrap;html=1;" vertex="1" parent="0trJhuwfx5v3oOROFD5g-102">
          <mxGeometry width="400" height="30" as="geometry" />
        </mxCell>
        <mxCell id="0trJhuwfx5v3oOROFD5g-105" value="logo" style="rounded=1;whiteSpace=wrap;html=1;" vertex="1" parent="0trJhuwfx5v3oOROFD5g-102">
          <mxGeometry x="30" width="50" height="30" as="geometry" />
        </mxCell>
        <mxCell id="0trJhuwfx5v3oOROFD5g-106" value="nav bar" style="rounded=1;whiteSpace=wrap;html=1;" vertex="1" parent="0trJhuwfx5v3oOROFD5g-102">
          <mxGeometry x="230" width="140" height="30" as="geometry" />
        </mxCell>
        <mxCell id="0trJhuwfx5v3oOROFD5g-119" value="" style="group" vertex="1" connectable="0" parent="0trJhuwfx5v3oOROFD5g-102">
          <mxGeometry x="30" y="40" width="340" height="340" as="geometry" />
        </mxCell>
        <mxCell id="0trJhuwfx5v3oOROFD5g-117" value="" style="rounded=1;whiteSpace=wrap;html=1;" vertex="1" parent="0trJhuwfx5v3oOROFD5g-119">
          <mxGeometry width="340" height="340" as="geometry" />
        </mxCell>
        <mxCell id="0trJhuwfx5v3oOROFD5g-112" value="Name input" style="rounded=1;whiteSpace=wrap;html=1;" vertex="1" parent="0trJhuwfx5v3oOROFD5g-119">
          <mxGeometry x="30" y="20" width="280" height="30" as="geometry" />
        </mxCell>
        <mxCell id="0trJhuwfx5v3oOROFD5g-114" value="Price input" style="rounded=1;whiteSpace=wrap;html=1;" vertex="1" parent="0trJhuwfx5v3oOROFD5g-119">
          <mxGeometry x="30" y="70" width="280" height="30" as="geometry" />
        </mxCell>
        <mxCell id="0trJhuwfx5v3oOROFD5g-115" value="img url input" style="rounded=1;whiteSpace=wrap;html=1;" vertex="1" parent="0trJhuwfx5v3oOROFD5g-119">
          <mxGeometry x="30" y="120" width="280" height="30" as="geometry" />
        </mxCell>
        <mxCell id="0trJhuwfx5v3oOROFD5g-116" value="description input" style="rounded=1;whiteSpace=wrap;html=1;" vertex="1" parent="0trJhuwfx5v3oOROFD5g-119">
          <mxGeometry x="30" y="170" width="280" height="90" as="geometry" />
        </mxCell>
        <mxCell id="0trJhuwfx5v3oOROFD5g-118" value="submit btn" style="rounded=1;whiteSpace=wrap;html=1;" vertex="1" parent="0trJhuwfx5v3oOROFD5g-119">
          <mxGeometry x="107.5" y="280" width="125" height="30" as="geometry" />
        </mxCell>
        <mxCell id="0trJhuwfx5v3oOROFD5g-107" value="" style="group" vertex="1" connectable="0" parent="1">
          <mxGeometry x="520" y="920" width="240" height="400" as="geometry" />
        </mxCell>
        <mxCell id="0trJhuwfx5v3oOROFD5g-108" value="" style="rounded=0;whiteSpace=wrap;html=1;" vertex="1" parent="0trJhuwfx5v3oOROFD5g-107">
          <mxGeometry width="240" height="400" as="geometry" />
        </mxCell>
        <mxCell id="0trJhuwfx5v3oOROFD5g-109" value="" style="rounded=0;whiteSpace=wrap;html=1;" vertex="1" parent="0trJhuwfx5v3oOROFD5g-107">
          <mxGeometry width="240" height="30" as="geometry" />
        </mxCell>
        <mxCell id="0trJhuwfx5v3oOROFD5g-110" value="logo" style="rounded=1;whiteSpace=wrap;html=1;" vertex="1" parent="0trJhuwfx5v3oOROFD5g-107">
          <mxGeometry x="20" width="50" height="30" as="geometry" />
        </mxCell>
        <mxCell id="0trJhuwfx5v3oOROFD5g-111" value="nav bar" style="rounded=1;whiteSpace=wrap;html=1;" vertex="1" parent="0trJhuwfx5v3oOROFD5g-107">
          <mxGeometry x="120" width="100" height="30" as="geometry" />
        </mxCell>
        <mxCell id="0trJhuwfx5v3oOROFD5g-120" value="" style="group" vertex="1" connectable="0" parent="1">
          <mxGeometry x="530" y="960" width="220" height="340" as="geometry" />
        </mxCell>
        <mxCell id="0trJhuwfx5v3oOROFD5g-122" value="Name input" style="rounded=1;whiteSpace=wrap;html=1;" vertex="1" parent="0trJhuwfx5v3oOROFD5g-120">
          <mxGeometry x="10" y="20" width="200" height="30" as="geometry" />
        </mxCell>
        <mxCell id="0trJhuwfx5v3oOROFD5g-123" value="Price input" style="rounded=1;whiteSpace=wrap;html=1;" vertex="1" parent="0trJhuwfx5v3oOROFD5g-120">
          <mxGeometry x="10" y="70" width="200" height="30" as="geometry" />
        </mxCell>
        <mxCell id="0trJhuwfx5v3oOROFD5g-124" value="img url input" style="rounded=1;whiteSpace=wrap;html=1;" vertex="1" parent="0trJhuwfx5v3oOROFD5g-120">
          <mxGeometry x="10" y="120" width="200" height="30" as="geometry" />
        </mxCell>
        <mxCell id="0trJhuwfx5v3oOROFD5g-125" value="description input" style="rounded=1;whiteSpace=wrap;html=1;" vertex="1" parent="0trJhuwfx5v3oOROFD5g-120">
          <mxGeometry x="10" y="170" width="200" height="90" as="geometry" />
        </mxCell>
        <mxCell id="0trJhuwfx5v3oOROFD5g-126" value="submit btn" style="rounded=1;whiteSpace=wrap;html=1;" vertex="1" parent="0trJhuwfx5v3oOROFD5g-120">
          <mxGeometry x="10" y="280" width="200" height="30" as="geometry" />
        </mxCell>
      </root>
    </mxGraphModel>
  </diagram>
</mxfile>
